<svg width="600" height="600" viewBox="0 0 600 600" fill="none" xmlns="http://www.w3.org/2000/svg">
<rect width="600" height="600" fill="#DDDFE4"/>
<path opacity="0.4" d="M274.25 285C280.463 285 285.5 279.963 285.5 273.75C285.5 267.537 280.463 262.5 274.25 262.5C268.037 262.5 263 267.537 263 273.75C263 279.963 268.037 285 274.25 285Z" fill="#9DA7BA"/>
<path opacity="0.4" d="M285.5 367.5H315.5C343.784 367.5 357.926 367.5 366.713 358.713C371.025 354.401 373.221 348.8 374.339 340.87L333.11 295.348C331.447 293.533 329.098 292.5 326.637 292.5C324.308 292.5 322.075 293.426 320.428 295.072L285.5 330L269.294 313.795C267.665 312.165 265.455 311.25 263.151 311.25C260.67 311.25 258.307 312.311 256.658 314.166L227.469 345.359C228.742 350.99 230.837 355.264 234.287 358.713C243.073 367.5 257.216 367.5 285.5 367.5Z" fill="#9DA7BA"/>
<path d="M315.5 232.5H285.5C257.216 232.5 243.074 232.5 234.287 241.287C225.5 250.074 225.5 264.216 225.5 292.5V307.5C225.5 335.784 225.5 349.927 234.287 358.713C243.074 367.5 257.216 367.5 285.5 367.5H315.5C343.784 367.5 357.927 367.5 366.713 358.713C375.5 349.927 375.5 335.784 375.5 307.5V292.5C375.5 264.216 375.5 250.074 366.713 241.287C357.927 232.5 343.784 232.5 315.5 232.5Z" stroke="#9DA7BA" stroke-width="5.14286" stroke-linecap="round" stroke-linejoin="round"/>
<path d="M274.25 285C280.463 285 285.5 279.963 285.5 273.75C285.5 267.537 280.463 262.5 274.25 262.5C268.037 262.5 263 267.537 263 273.75C263 279.963 268.037 285 274.25 285Z" stroke="#9DA7BA" stroke-width="5.14286" stroke-linecap="round" stroke-linejoin="round"/>
<path d="M371.75 337.5L333.11 295.348C331.447 293.533 329.098 292.5 326.638 292.5C324.308 292.5 322.075 293.426 320.428 295.072L285.5 330L269.295 313.795C267.665 312.165 265.456 311.25 263.151 311.25C260.67 311.25 258.307 312.311 256.658 314.166L229.25 345" stroke="#9DA7BA" stroke-width="5.14286" stroke-linecap="round" stroke-linejoin="round"/>
</svg>
